<svg xmlns="http://www.w3.org/2000/svg" version="1.1" width="600px" height="600px" viewBox="0 0 200 200" style="overflow:hidden!important;"><g id="svga-group-wrapper"><g id="svga-group-backs-single"><path id="SvgjsPath14228" d="M0 0h200v200H0V0z" fill="#ecf0f1" stroke-width="none" opacity="1"></path></g><g id="svga-group-humanwrap-move" transform="matrix(1,0,0,1,0,0)"><g id="svga-group-humanwrap"><g id="svga-group-hair-back-move" transform="matrix(0.9986295346632303,0.05233595798588117,-0.05233595798588117,0.9986295346632303,7.202400861770926,-5.048582978124216)"><g id="svga-group-hair-back"></g></g><g id="svga-group-humanbody-back"><path id="SvgjsPath14157" d="M180.8 184.9c-2.3-3.4-38.9-17.8-38.9-17.8l-13.4-5.2-5.6-68.8H76.8L71.3 162l-13.4 5.2S21.4 181.6 19 185c-2.3 3.4-3.3 14.9-3.3 14.9V219h168.5v-19.2c-.1.1-1-11.5-3.4-14.9z" fill="#f0c7b1" stroke-width="none" opacity="1" stroke="none"></path></g><g id="svga-group-chinshadow-single"><path id="SvgjsPath14439" d="m76.82 93.1-3.58 45.07c7.72 10.37 15.12 20.14 15.87 20.73 1.4 1.1 9.2 1.1 10.6 0 1.02-.76 16.06-21.1 25.8-34.27l-2.57-31.53H76.82z" fill="#d19271" stroke-width="none" opacity="1" stroke="none"></path></g><g id="svga-group-humanbody-front"><path id="SvgjsPath14158" d="M184.5 219c-.1-6.4-.1-12.8-.1-19.2l-.3-.1s.1-.1.2 0c.1 0 .1.1.1.1v-.4l-.1-.5-.1-.9-.2-1.9c-.2-1.3-.4-2.5-.6-3.8-.2-1.3-.5-2.5-.9-3.8-.4-1.2-.8-2.5-1.5-3.6-.8-.9-1.9-1.5-2.9-2.1-1-.6-2.1-1.1-3.2-1.7-2.1-1.1-4.3-2.1-6.5-3.1-4.4-2-8.7-3.9-13.1-5.7-4.4-1.9-8.8-3.7-13.2-5.5l-13-5.2-1.2-16.9c-.4-5.7-.9-11.5-1.3-17.2l-1.3-17.2-1.5-17.3-.1-.8h-.8c-7.7 0-15.4.1-23.1.1l-23.1.2h-.5v.5L75 110.2l-1.3 17.2c-.8 11.4-1.8 22.8-2.8 34.2-5.6 2.1-11.2 4.2-16.7 6.4-5.6 2.2-11.2 4.5-16.8 6.9-2.8 1.2-5.6 2.4-8.3 3.6-2.8 1.3-5.5 2.5-8.2 4.1-.7.4-1.3.8-2 1.4-.2.1-.4.4-.5.6l-.3.6c-.2.4-.4.7-.5 1.1-.6 1.5-1 3-1.3 4.5-.6 3-1.1 6-1.4 9.1l-.1 19.1v.9h.9l42.1.1H100c14 0 28.1-.1 42.1-.2l42.1-.5h.3v-.3zm-84.5-1-42.1-.1-41.2.1-.1-18.1c.3-3 .6-5.9 1.2-8.9.3-1.4.6-2.9 1.1-4.2.1-.3.3-.7.4-.9l.2-.4.3-.3c.5-.4 1.1-.8 1.8-1.2 2.5-1.5 5.3-2.8 8-4.1 2.7-1.3 5.5-2.5 8.2-3.7 5.5-2.4 11.1-4.8 16.7-7.1s11.2-4.5 16.9-6.7l.2-.1v-.2c.9-11.5 1.7-23 2.7-34.4l1.4-17.2 1.5-16.7 22.6.2c7.4.1 14.8.1 22.3.1l1.3 16.4 1.5 17.2c.5 5.7 1 11.5 1.5 17.2l1.6 17.2v.3l.3.1 13.4 5c4.4 1.7 8.9 3.4 13.3 5.2 4.4 1.8 8.8 3.7 13.2 5.6 2.2 1 4.3 2 6.5 3 1.1.5 2.1 1.1 3.2 1.6 1 .6 2.1 1.2 2.9 2 .7 1.1 1.1 2.3 1.4 3.5.3 1.2.6 2.5.8 3.7.2 1.3.4 2.5.6 3.8l.2 1.9.1.9.1.5v.4c0 6.3 0 12.6-.1 18.9l-41.8-.5c-14 .1-28.1 0-42.1 0z" fill="#c27b55" stroke-width="none" opacity="1" stroke="none"></path><path id="SvgjsPath14159" d="M125.1 142.4s-1.8 23-9.1 32.9c0 0 7.9-25 9.1-32.9zm-34.5 16s5 7.9 11.5 10.1c0 0-9.5 2.2-11.5-10.1zM73.4 140c6.7 25.6 6.7 25.6 8.5 30.7 0 0 .4-12.6-8.5-30.7z" fill="#d19271" stroke-width="none" opacity="1" stroke="none"></path></g><g id="svga-group-clothes-single"><path id="SvgjsPath14043" d="m69.9 150.1-1.8.9s-1.4 2.9-2.4 5.1c-1 2.2-4.7 5.9-4.7 5.9s-.6 2.2-.6 2.9c0 0-12.3 4.2-15.9 5.6-3.6 1.4-19.2 6.3-21.3 6.4s-5.1 1.8-5.1 1.8-3 1.7-3.9 4.5c-1 2.8-2.6 34.4-2.6 36.8h175.9s-1.8-32.4-3.5-34.9c-.6-.9-.2-2.6-5.9-5.1s-17-7-20.8-8.5-19.3-7.2-19.3-7.2-.2-2.3-2.3-3.4c-2.1-1.1-5.3-9.8-5.3-9.8l-1.3-1.3s.4 5.1.2 9.6-4.7 11.7-7.9 13.8c-3.2 2.1-9 5.7-11.3 6.6s-2.8 3.4-3.8 5.9-2.6 5.9-2.6 5.9-3.6-4.5-5.3-7.6c-1.7-3.2-4-5.5-8.3-5.1-4.2.4-5.5-.9-7-1.7-1.5-.9-10.6-15.1-11.9-18.7-1.1-3.6-1.3-8.4-1.3-8.4z" fill="#959595" stroke-width="none" opacity="1"></path><path id="SvgjsPath14044" d="M188.3 220c-.4-6.9-.8-13.8-1.3-20.7-.3-3.5-.6-6.9-1.1-10.4-.1-.9-.3-1.7-.5-2.6-.1-.5-.2-.9-.5-1.5l-.1-.2-.1-.2-.3-.6c-.5-1-1.2-1.7-1.9-2.3-.8-.6-1.5-1-2.3-1.5-1.6-.9-3.2-1.4-4.8-2.1l-4.8-2-9.6-4c-6.2-2.5-15.8-5.4-21.9-8.3-.1-.6-.4-1.1-.7-1.6-.4-.7-1-1.3-1.7-1.7l-.3-.1c-.1-.1-.2-.1-.2-.1-.1-.1-.1-.1-.2-.1-.2-.2-.3-.3-.5-.6-.4-.4-.7-1-1-1.5-1.2-2.2-2.2-4.6-3.1-6.9l-.1-.2-.1-.1-1.3-1.3-1.9-1.9.2 2.8c.2 2.3.3 4.6.3 6.9v2.6l-.1.8c-.2 1-.5 2.1-.9 3.1-.8 2.1-2 4.1-3.3 5.9-.7.9-1.4 1.8-2.2 2.5-.4.4-.8.7-1.2 1-.4.3-.9.6-1.4.8-4.1 2.1-4.9 3.8-9.2 5.5-.6.2-1.3.6-1.8 1.1-.5.5-.9 1.1-1.2 1.6-.6 1.1-.9 2.3-1.3 3.3l-.9 2.1c-.5 1-.9 2-1.4 3-1.2-1.6-2.5-3.2-3.6-4.9-.3-.5-.6-1-.9-1.6-.3-.6-.7-1.1-1.1-1.7-.8-1.1-1.8-2.1-3-2.7-1.2-.7-2.6-.9-4-.9-.5.1-3.5.1-7.7-1.7-.5-.2-1.5-1.9-2.3-2.9-.7-1-1.5-2.1-2.2-3.1-1.4-2.1-2.8-4.2-4.1-6.4-.7-1.1-1.3-2.2-1.9-3.3-.6-1.1-1.1-2.1-1.4-3.4.1-1.6.4-4.6.5-5.7 0 0 .1-2.2.1-2.4-1.2-.1-3.2 1.1-3.9 1.4l-1.5 3c-.5 1-.9 2-1.5 2.9-.6.9-1.3 1.8-2 2.6s-1.5 1.6-2.3 2.4l-.1.1v.1c-.1.5-.2 1-.4 1.4-.1.4-.2.8-.2 1.3-3.2 1.4-9.4 2.7-12.6 4.1-3.2 1.4-6.6 2.4-10 3.5-3.4 1-6.8 2.1-10.1 3-.9.2-1.7.5-2.5.7l-1.2.3c-.2 0-.3.1-.6.1-.2 0-.5.1-.7.1-.9.2-1.8.5-2.7.8l-1.2.6-.6.3c-.3.1-.4.3-.6.4-1.5 1.1-2.9 2.5-3.6 4.4-.2.5-.3 1-.3 1.4l-.2 1.3-.3 2.7c-.3 3.5-.6 7.1-.8 10.6l-.7 10.6c-.2 3.6-.4 7-.5 10.6v.9h.9l22-.1 22-.2 22-.2 22-.1c7.3-.1 14.7 0 22 0s14.7 0 22 .1l44 .3h.8l-.3-1.2zm-68.2-44.9c.5-.3 1.1-.6 1.6-.9.5-.3 1.1-.7 1.5-1.2.9-.9 1.7-1.8 2.4-2.8 1.4-1.9 2.6-4 3.6-6.3.4-1.1.8-2.3 1-3.6l.1-1v-2.7c0-1 0-2-.1-3 .7 1.7 1.4 3.3 2.3 4.9.3.6.7 1.2 1.1 1.8.2.3.5.6.8.9.1.1.4.3.6.4l.4.2c.4.3.7.6 1 1 .2.4.4 1 .5 1.4l.1.6v.1c.5 2.7 1.1 5.3 1.7 8 .6 2.6 1.4 5.3 2.2 7.9l2.3 7.8 1.1 3.9c.2.8.5 1.7.7 2.5-1.4-.3-2.7-.7-3.9-1.4-.8-.5-1.4-1-2.3-1.7-.8-.6-1.6-1.3-2.5-1.8-1.7-1.2-3.5-2.2-5.4-3l-1.4-.6c-.4-.2-.9-.4-1.3-.6-.8-.5-1.6-1-2.4-1.6-.8-.6-1.5-1.2-2.2-1.9-.3-.4-.7-.7-.9-1.1-.2-.2-.3-.4-.4-.6l-.2-.3-.3-.4c-1.5-1.7-3.6-2.5-5.6-2.8-.3-.1-.7-.1-1-.1 1.8-.6 3.4-1.3 4.9-2zm-12.8 10.4c.9-2.2.5-4.6 6.9-7.5.9-.1 1.4 0 2.3.2 1.8.4 3.5 1.3 4.5 2.7l.2.2.2.3c.1.1.2.3.3.4 0 0-1.8 1.6-5.9 3.2-1.7.5-3.3.9-5 1.4-1.5.3-2.9.7-4.4.9l.9-1.8zm-4.5 6.1c-1.2 1.9-2.5 3.9-4 5.6l-.4.4c-1.7-3.4-5.1-8.9-6.2-10.7.5.1.9.1 1.4.1 1.9.1 3.8.1 5.7-.1 1.2 1.6 2.3 3.2 3.5 4.7zM91 179.5c1.2 0 2.3.2 3.3.8 1 .6 1.8 1.4 2.5 2.4.3.5.7 1 .9 1.6.3.6.6 1.1 1 1.7l.6.9c-1.9-.1-3.8-.3-5.6-.6-2-.3-4-.6-6-1s-6.6-2.2-8.4-2.7c.5-.6 1-1.1 1.5-1.7.6-.8 1.1-1.4 1.8-1.7.7-.3 1.6-.3 2.4-.3.1 0 5.4.6 6 .6zm-29.6-17.3c.8-.8 1.5-1.6 2.2-2.4.7-.9 1.4-1.7 2-2.7.6-1 .9-2 1.4-3l1.3-3c.5-.3 1-.6 1.6-.9v.8l.1.9c.1.6.1 1.3.2 1.9.2 1.3.4 2.5.7 3.8.3 1.2.9 2.4 1.5 3.6.6 1.1 1.2 2.2 1.8 3.4 1.3 2.2 2.6 4.4 3.9 6.5.7 1.1 1.4 2.1 2.1 3.2.8 1.1 1.4 2.1 2.4 3.1.3.3.6.5.9.6 0 0 .1 0 .1.1-.5 0-.9.1-1.4.2-.5.2-.9.5-1.3.8-.4.4-.6.7-.9 1l-1.9 1.9c-1.3 1.3-2.6 2.5-3.9 3.7-1.3 1.2-2.7 2.4-4 3.6-1.3 1.1-2.8 2.1-4.3 3.1-2.5 1.6-5.1 3.1-7.7 4.5.5-5.5 1-11 1.4-16.5l.7-9.1c.2-2 .3-3.9.5-5.9l.2-.1v-.2c0-.4.1-.9.2-1.4 0-.6.1-1.1.2-1.5zm-5.8 57.2-22-.2-21.1-.1c.3-6.7.6-13.5 1-20.2.2-3.5.4-7.1.8-10.6.1-.9.2-1.8.3-2.6l.2-1.3c0-.2.1-.4.1-.6.1-.2.1-.4.1-.6.5-1.4 1.7-2.7 3.1-3.6.2-.1.4-.2.5-.3l.6-.3c.4-.2.8-.4 1.2-.5.8-.3 1.6-.6 2.4-.8.2 0 .4-.1.6-.1l.7-.1c.5-.1.9-.2 1.3-.3.9-.2 1.7-.5 2.6-.7 3.4-1 6.8-2.1 10.1-3.2s6.8-2.2 10-3.7c3.1-1.4 9.2-2.8 12.3-4.2-.3 1.9-.6 3.7-.9 5.6-.5 3-1 6.1-1.3 9.1-.8 6.1-1.4 12.2-2.1 18.3l-.2 1.8 1.6-.8c3.3-1.6 6.4-3.4 9.5-5.4 1.5-1 3-2.1 4.4-3.4 1.3-1.2 2.7-2.5 3.9-3.8 1.3-1.3 2.6-2.6 3.8-3.9l.3-.3c3.6 1.7 4.4 2.8 8.2 3.6 1.2.2 2.4.4 3.5.6l-.1.1c.1.1 4.8 7.7 6.7 11.6-.1.1-.2.2-.2.4-.4.7-.6 1.5-.7 2.2-.1 1.4.1 2.7.2 3.9l.5 3.7.4 3.7c.2 2.4.5 4.9.9 7.3l-21.2-.1-22-.2zm43.3.3c.2-2.5.2-4.9.2-7.4.1-2.5 0-5.1-.3-7.6-.1-1.2-.2-2.5-.1-3.6.1-.5.2-1 .4-1.4.1-.2.3-.4.4-.6l.3-.3.4-.4c.9-1 1.7-2.1 2.4-3.1.7-1.1 1.3-2.2 2-3.3v-.1l.9-2.4.9-2c1.5.1 3.1-.1 4.6-.3.8-.1 1.5-.3 2.2-.4-1.5 2.6-6.5 11.1-7.8 12.9-1.3 1.8-1.1 3.3-.9 5 0 .4.1.8.1 1.3.1 2.1.8 11.5 1 13.6h-6.1l-.6.1zm22.7 0h-14.9c-.2-2-.9-11.6-1-13.7 0-.5-.1-.9-.1-1.3-.2-1.7-.3-2.9.8-4.4 1.5-2.1 6.3-10.5 6.6-10.9l1.6-2.8c1-.4 1.8-.8 3.4-1.5 2.2-1.2 2.8-1.8 3.9-3 0 .1.1.1.1.1.3.4.7.8 1 1.2.7.8 1.4 1.5 2.2 2.2.8.7 1.6 1.3 2.6 1.8.4.3.9.5 1.4.7l1.4.6c1.8.8 3.4 1.8 5 2.9.8.6 1.6 1.1 2.3 1.8.7.6 1.6 1.4 2.5 1.9 1.9 1.1 3.9 1.7 6.1 1.9l1.3.1-.3-1.3c-.3-1.4-.7-2.7-1.1-4l-1.2-3.9-2.5-7.8c-.8-2.6-1.7-5.1-2.5-7.7-.7-2.4-1.4-4.8-2-7.1 2.9 1.4 9.4 2.8 12.3 4.1 1.6.7 3.1 1.4 4.8 2.1l4.8 2 9.6 3.9 4.8 1.9c1.6.7 3.2 1.2 4.7 2 1.4.8 2.9 1.7 3.5 2.9.1.2.1.3.2.6 0 .1.1.2.2.4.1.1.2.3.2.3.1.1.2.6.3 1 .2.8.3 1.6.5 2.5.5 3.4.8 6.8 1.1 10.2.6 6.6 1.1 13.2 1.5 19.9l-43.2.3c-7.2 0-14.6 0-21.9.1zm-9.9-37.7c.8 0 1.5.7 1.5 1.5s-.7 1.5-1.5 1.5-1.5-.7-1.5-1.5.7-1.5 1.5-1.5zm-10.1 18.4c.8 0 1.5.7 1.5 1.5s-.7 1.5-1.5 1.5-1.5-.7-1.5-1.5.7-1.5 1.5-1.5zm-73.8-4.5c-.2-1.2-.5-2.6-.9-3.8-.4-1.2-.9-2.4-1.3-3.6-1-2.3-2-4.6-3.1-6.9l1.2 3.6 1.2 3.6 1.2 3.6c.4 1.2.6 2.4.8 3.6.4 2.5.6 5 .9 7.5l.4 3.8c.2 1.2.3 2.5.5 3.8 0-2.5 0-5.1-.2-7.6-.2-2.6-.4-5.1-.7-7.6zm150.5-9.2c-.5.6-.9 1.3-1.3 1.9-.8 1.3-1.5 2.7-2.2 4.1-1.4 2.8-2.6 5.7-3.6 8.6v.2c-.2 2.5-.3 5-.4 7.6-.1 2.5-.2 5-.2 7.6.4-2.5.7-5 .9-7.5.3-2.5.5-5 .7-7.5 1.1-2.9 2.2-5.7 3.4-8.6.6-1.4 1.2-2.8 1.9-4.2.7-1.4 1.4-2.8 2.5-3.8-.6.4-1.2 1-1.7 1.6z" fill="#767676" stroke-width="none" opacity="1"></path><path id="SvgjsPath14045" d="M135.7 164.5c-.1 4.2.8 8.5 1.7 12.6.3 1.3 4.5 13.8 4.4 13.8 0 0-6.8-5.8-8.1-6.6-3.9-2.4-8.2-4.3-12.3-6.2-.3-.1-.5.3-.2.4 7.3 4 15.5 8.1 21.4 14.1.1.1.4 0 .4-.2-3.6-9.2-4.6-18.4-6.7-27.9-.2-.4-.6-.3-.6 0zm43.6 17.9c-5-2.4-10.5-3.8-15.7-5.7-6.6-2.4-16.5-5.3-22.9-8.2-.3-.2-.6.3-.3.5 5.1 3.5 14.5 5.8 20.3 8 5.9 2.2 12.2 4.8 18.4 6.1.3 0 .6-.5.2-.7zm-2.4 2.3c-2.5 2.6-4.7 5.8-5.6 9.2-.1.2.3.4.4.2 1.4-3.4 3-6.4 5.6-9 .1-.3-.2-.6-.4-.4zm6 2.1c0-.4-.6-.4-.6 0 .1 5.9.2 11.8.8 17.6 0 .4.6.4.6 0 .1-5.8-.3-11.8-.8-17.6zm-105-9.3c-6.2 5.9-13 11.3-19.1 17.2-.2.2.1.7.4.5 7.2-4.7 13.5-10.9 19.5-17 .3-.4-.4-1.1-.8-.7z" fill="#a4a4a4" stroke-width="none" opacity="1"></path></g><g id="svga-group-head" transform="matrix(0.9986295346632303,0.05233595798588117,-0.05233595798588117,0.9986295346632303,7.202400861770926,-5.048582978124216)"><g id="svga-group-ears-left-move" transform="matrix(1,0,0,1,0,0)"><g id="svga-group-ears-left"><path id="SvgjsPath14561" d="M67.09 85.03s-3.12-7.36-5.69-9.71c-2.57-2.34-7.59-5.02-9.48-4.35-1.9.67 1.12 8.81 2.23 10.6 1.12 1.79 1.12 11.49 1.23 14.39.11 2.9 2.9 6.25 5.02 8.7 2.12 2.45 4.24-1.12 5.69-4.35 1.45-3.23 1-15.28 1-15.28z" fill="#f0c7b1" stroke-width="none" opacity="1"></path><path id="SvgjsPath14562" d="M65.92 91.31c-.33-2.85-5.11-11.21-6.86-12.8-1.76-1.59-5.69-4.44-5.77-3.52s2.26 5.69 2.34 8.54.17 10.96 1.09 12.72c.92 1.76 5.69 1.51 6.53-.17s2.67-4.77 2.67-4.77z" fill="#e1ac8f" stroke-width="none" opacity="1"></path><path id="SvgjsPath14563" d="M51.07 71.79c-.11.94.06 1.79.25 2.64.4 1.69.98 3.31 1.62 4.9.33.79.68 1.58 1.11 2.33.35.72.47 1.6.59 2.43.22 1.69.26 3.4.32 5.11.04 1.71.03 3.42.05 5.13.03.85-.04 1.71.14 2.62.17.89.52 1.72.93 2.5.82 1.56 1.87 2.94 2.96 4.28.27.33.55.67.83.99.13.16.29.33.47.5.16.18.38.32.6.45.46.25 1.07.32 1.58.14.49-.19.88-.49 1.21-.81.66-.65 1.13-1.41 1.57-2.16.43-.76.81-1.54 1.15-2.34.63-1.74.72-3.45.84-5.17.17-3.44.07-6.86-.15-10.29-.62-1.62-1.31-3.18-2.08-4.71-.79-1.52-1.59-3.06-2.7-4.42-.56-.69-1.24-1.27-1.92-1.8-.69-.53-1.41-1.01-2.15-1.47-1.49-.89-3.07-1.66-4.83-2.01-.44-.07-.91-.11-1.4.01-.22.02-.56.2-.71.44-.18.22-.23.47-.28.71zm.56.1c.04-.18.1-.36.19-.47.1-.11.16-.15.37-.18.35-.08.75-.02 1.14.05 1.6.33 3.13 1.13 4.58 1.96.73.42 1.44.88 2.11 1.38.68.51 1.32 1.03 1.85 1.67 1.07 1.27 1.97 2.74 2.81 4.22.83 1.48 1.63 3.01 2.37 4.53-.03 3.41-.11 6.84-.4 10.23-.16 1.68-.34 3.42-.92 4.9-.73 1.51-1.47 3.09-2.59 4.22-.28.27-.59.49-.9.61-.31.1-.61.06-.9-.09-.55-.33-1.09-1.11-1.65-1.73-1.09-1.3-2.14-2.64-2.94-4.1-.4-.73-.72-1.5-.9-2.28-.17-.76-.15-1.64-.19-2.49-.06-1.71-.14-3.42-.25-5.13-.11-1.71-.25-3.42-.48-5.12-.14-.85-.25-1.71-.66-2.52-.43-.72-.75-1.52-1.07-2.31-.62-1.59-1.13-3.22-1.44-4.89-.14-.84-.26-1.7-.13-2.46z" fill="#e1ac8f" stroke-width="none" opacity="1"></path><path id="SvgjsPath14564" d="M57.38 80.46c.58 1.22 1.11 2.47 1.51 3.75.4 1.29.75 2.59 1.06 3.9.29 1.31.56 2.63.72 3.97l-.08.02c-.42-1.28-.8-2.56-1.2-3.84-.39-1.28-.78-2.56-1.2-3.82-.41-1.27-.78-2.55-1.24-3.8-.38-1.05-.84-2.1-1.49-3 .37 1.58.79 3.15 1.13 4.74.19.9.36 1.8.49 2.71.07.46.13.92.17 1.38.05.46.04.98.04 1.39.05 1.78.28 3.6.53 5.39.14.9.28 1.79.47 2.67.09.44.2.88.32 1.3.01.02.01.04.02.06.04-.85.09-1.71.11-2.56.04-1.28.1-2.55.06-3.83l.08-.01c.17 1.27.2 2.56.25 3.84.03 1.28.04 2.56.05 3.84v.8l-.52-.59c-.4-.46-.51-.9-.68-1.34-.15-.45-.28-.89-.39-1.34-.23-.9-.42-1.8-.58-2.71-.31-1.82-.56-3.63-.58-5.51.09-1.79-.24-3.58-.47-5.39-.26-1.8-.5-3.62-.9-5.4l-.12-.54.35.42c.88 1.08 1.49 2.29 2.09 3.5z" fill="#c27b55" stroke-width="none" opacity="1"></path></g></g><g id="svga-group-ears-right-move" transform="matrix(1,0,0,1,0,0)"><g id="svga-group-ears-right"><path id="SvgjsPath14565" d="M132.91 85.03s3.12-7.36 5.69-9.71c2.57-2.34 7.59-5.02 9.48-4.35s-1.12 8.81-2.23 10.6c-1.12 1.79-1.12 11.49-1.23 14.39-.11 2.9-2.9 6.25-5.02 8.7-2.12 2.45-4.24-1.12-5.69-4.35-1.45-3.23-1-15.28-1-15.28z" fill="#f0c7b1" stroke-width="none" opacity="1"></path><path id="SvgjsPath14566" d="M134.08 91.31c.33-2.85 5.11-11.21 6.86-12.8 1.76-1.59 5.69-4.44 5.77-3.52.08.92-2.26 5.69-2.34 8.54s-.17 10.96-1.09 12.72c-.92 1.76-5.69 1.51-6.53-.17s-2.67-4.77-2.67-4.77z" fill="#e1ac8f" stroke-width="none" opacity="1"></path><path id="SvgjsPath14567" d="M148.66 71.07c-.15-.24-.49-.42-.71-.44-.49-.12-.96-.08-1.4-.01-1.76.35-3.34 1.12-4.83 2.01-.74.45-1.46.93-2.15 1.47-.68.53-1.36 1.1-1.92 1.8-1.11 1.36-1.91 2.9-2.7 4.42-.77 1.54-1.46 3.1-2.08 4.71-.23 3.43-.33 6.85-.15 10.29.12 1.72.22 3.44.84 5.17.34.79.72 1.58 1.15 2.34.44.76.91 1.51 1.57 2.16.33.32.72.62 1.21.81.51.18 1.11.11 1.58-.14.22-.14.44-.27.6-.45.18-.17.34-.34.47-.5.28-.32.55-.66.83-.99 1.09-1.34 2.14-2.72 2.96-4.28.4-.78.75-1.61.93-2.5.17-.92.11-1.77.14-2.62.02-1.71.01-3.42.05-5.13.05-1.71.1-3.42.32-5.11.12-.83.23-1.71.59-2.43.43-.76.78-1.54 1.11-2.33.64-1.59 1.21-3.21 1.62-4.9.18-.85.36-1.7.25-2.64-.06-.23-.11-.48-.28-.71zm-.42 3.27c-.31 1.66-.82 3.3-1.44 4.89-.32.79-.63 1.59-1.07 2.31-.41.81-.52 1.67-.66 2.52-.22 1.7-.37 3.41-.48 5.12-.11 1.71-.2 3.42-.25 5.13-.05.85-.02 1.73-.19 2.49-.18.79-.5 1.55-.9 2.28-.8 1.46-1.85 2.8-2.94 4.1-.56.62-1.1 1.4-1.65 1.73-.29.15-.59.19-.9.09-.31-.12-.62-.34-.9-.61-1.12-1.13-1.86-2.71-2.59-4.22-.58-1.47-.76-3.22-.92-4.9-.29-3.39-.37-6.82-.4-10.23.74-1.52 1.54-3.05 2.37-4.53.84-1.48 1.73-2.95 2.81-4.22.53-.63 1.17-1.16 1.85-1.67.67-.5 1.39-.96 2.11-1.38 1.45-.83 2.98-1.63 4.58-1.96.39-.07.8-.12 1.14-.05.21.03.27.07.37.18.09.11.15.29.19.47.13.77.01 1.63-.13 2.46z" fill="#e1ac8f" stroke-width="none" opacity="1"></path><path id="SvgjsPath14568" d="M142.62 80.46c-.58 1.22-1.11 2.47-1.51 3.75-.4 1.29-.75 2.59-1.06 3.9-.29 1.31-.56 2.63-.72 3.97l.08.02c.42-1.28.8-2.56 1.2-3.84.39-1.28.78-2.56 1.2-3.82.41-1.27.78-2.55 1.24-3.8.38-1.05.84-2.1 1.49-3-.37 1.58-.79 3.15-1.13 4.74-.19.9-.36 1.8-.49 2.71-.07.46-.13.92-.17 1.38-.05.46-.04.98-.04 1.39-.05 1.78-.28 3.6-.53 5.39-.14.9-.28 1.79-.47 2.67-.09.44-.2.88-.32 1.3-.01.02-.01.04-.02.06-.04-.85-.09-1.71-.11-2.56-.04-1.28-.1-2.55-.06-3.83l-.08-.01c-.17 1.27-.2 2.56-.25 3.84-.03 1.28-.04 2.56-.05 3.84v.8l.52-.59c.4-.46.51-.9.68-1.34.15-.45.28-.89.39-1.34.23-.9.42-1.8.58-2.71.31-1.82.56-3.63.58-5.51-.09-1.79.24-3.58.47-5.39.26-1.8.5-3.62.9-5.4l.12-.54-.35.42c-.88 1.08-1.49 2.29-2.09 3.5z" fill="#c27b55" stroke-width="none" opacity="1"></path></g></g><g id="svga-group-faceshape-wrap"><g id="svga-group-faceshape-single"><path id="SvgjsPath14429" d="M140.23 54.83c-2.2-10-6.4-15.85-15.3-20.65-9.3-5-24.9-4.73-24.9-4.73s-15.93-.18-25.23 4.82c-8.8 4.8-12.86 10.64-15.06 20.64-.9 4 .02 13.62.02 13.62s1 9.87.7 16.37c-.3 6.6-1.06 19.94.34 21.94s32.47 42.97 33.97 44.17c1.4 1.1 8.83 1.18 10.23.08s32.45-42.47 33.95-44.47c1.4-2 .69-14.44.39-21.04s.47-15.29.47-15.29 1.32-11.46.42-15.46z" fill="#f0c7b1" stroke-width="none" opacity="1" stroke="none"></path><path id="SvgjsPath14430" d="M139.64 84.83c-.3-6.6.66-16.33.66-16.33s1.02-9.58.12-13.68c-2.2-10-6.42-15.92-15.32-20.72-9.3-5-25.2-4.8-25.2-4.8s-15.9-.2-25.2 4.8C66 38.9 61.8 44.9 59.6 54.9c-.9 4 0 13.6 0 13.6s1.1 9.9.8 16.4c-.3 6.6-1.1 20 .3 22 1.4 2 32.5 43.2 34 44.4 1.4 1.1 9.2 1.1 10.6 0s32.5-42.4 34-44.4c1.4-2 .64-15.47.34-22.07zM84.2 31.8c3.1-.6 6.3-1.1 9.5-1.3 1.6-.1 3.2-.25 4.8-.3 1.6-.05 3.2 0 4.8 0 3.2.1 6.4.3 9.6.8s6.1 1.32 9.1 2.42c1.03.3 10.98 5.34 14.33 12.04 1.46 2.92 2.63 6.19 3.33 9.29.89 3.46.44 8.95.34 10.05-.1 1.1-.2 2.3-.3 3.4-.2 1.6-.47 3.17-.57 4.87-.2 1.6-.23 3.23-.33 4.93-.1 1.6.2 8.3.2 10 .1 3.2.2 10.5.1 13.7 0 .8.02 2.48-.4 3.5-.53 1.19-1.6 2.7-1.6 2.7l-1.5 1.9c-4 5.2-7.9 9.4-11.8 14.6l-5.9 7.8-5.8 7.8-5.9 7.8c-.5.6-1 1.3-1.5 1.9-1.49.94-2.7.9-3.5 1s-3.8-.1-4.6-.2c-.4-.1-1.02-.11-1.6-.5-.24-.16-1.5-1.8-1.5-1.8l-1.5-1.9c-2-2.6-4-5.1-5.9-7.7l-11.8-15.5c-4-5.2-7.9-9.3-11.8-14.5l-1.5-1.9s-.74-1.21-.9-6.8c0-3.2.28-10.47.48-13.67.3-6.5-.25-13.11-.75-19.51-.2-3.2-.33-6.48-.03-9.68 0-.4.6-4.04.8-4.74.4-1.5 1-3 1.6-4.5s1.4-2.8 2.3-4.1c.9-1.3 1.9-2.5 3-3.6.5-.6 1.2-1 1.8-1.6.6-.5 1.2-1 1.9-1.4 1.3-.9 2.9-1.71 4.3-2.41 2.8-1.4 5.6-2.29 8.7-2.89" fill="#c27b55" stroke-width="none" opacity="1" stroke="none"></path></g></g><g id="svga-group-mouth-single-move" transform="matrix(1,0,0,1,0,0)"><g id="svga-group-mouth-single" transform="matrix(0.8999995000000002,0,0,0.8999995000000002,10.09962134441183,12.583304951122258)"><path id="SvgjsPath14513" d="M115.95 118.85c-2.72.91-5.53 1.92-7.88 2.91-2.5 1.06-4.07 2.57-6.76 3.19-2.65.62-5.3-.52-8.01-.37-2.69.14-6.08 2.24-7.87-.41-.95-1.41-2.74.41-1.63 1.37 1.64 1.41 3.91 2.59 5.96 2.73 3.29.23 7.06.3 10.34-.05 6.21-.67 11.72-3.75 17.44-6.41 1.86-1.3 1.02-3.63-1.59-2.96z" fill="#da7c87" stroke-width="none" opacity="1" stroke="none"></path><path id="SvgjsPath14514" d="M107.55 131.3c-1.8-.09-3.6.28-5.4.35-1.81.07-3.62-.07-5.43-.06-.38 0-.47.57-.09.67 3.35.88 7.85 1.04 11.07-.39.3-.13.13-.55-.15-.57z" fill="#e1ac8f" stroke-width="none" opacity="1" stroke="none"></path></g></g><g id="svga-group-eyes-left-move" transform="matrix(1,0,0,1,1,0)"><g id="svga-group-eyes-left"><g id="svga-group-eyesback-left"><path id="SvgjsPath14101" d="M80.2 74.2c7.5 0 13.5 5.8 13.5 13s-6 13-13.5 13-13.5-5.8-13.5-13 6-13 13.5-13z" fill="#ffffff" stroke-width="none" opacity="1"></path></g><g id="svga-group-eyesiriswrapper-left" transform="matrix(1,0,0,1,0,0)"><g id="svga-group-eyesiriscontrol-left" transform="matrix(1,0,0,1,0,0)"><g id="svga-group-eyesiris-left"><path id="SvgjsPath14174" d="M80.2 81.9c2.9 0 5.3 2.4 5.3 5.3s-2.4 5.3-5.3 5.3-5.3-2.4-5.3-5.3 2.4-5.3 5.3-5.3z" fill="#5f3d10" stroke-width="none" opacity="1" stroke="none"></path><path id="SvgjsPath14175" d="M77.4 88.7c0 1.3.5 2.5 1.3 3.3.5.1 1 .2 1.5.2 2.8 0 5.1-2.3 5.1-5.1 0-1-.3-2-.8-2.8-.7-.3-1.4-.5-2.2-.5-2.8.1-4.9 2.3-4.9 4.9z" fill="#6e4c1e" stroke-width="none" opacity="1" stroke="none"></path><path id="SvgjsPath14176" d="M80.2 84.5c1.5 0 2.7 1.2 2.7 2.7s-1.2 2.7-2.7 2.7-2.7-1.2-2.7-2.7 1.2-2.7 2.7-2.7z" fill="#000000" stroke-width="none" opacity="1"></path><path id="SvgjsPath14177" d="M79 84.5c.5 0 .9.4.9.9s-.4.9-.9.9-1-.4-1-.9.5-.9 1-.9zm3.1 4.3c.2 0 .4.2.4.4s-.2.4-.4.4-.4-.2-.4-.4.2-.4.4-.4z" fill="#ffffff" stroke-width="none" opacity="1"></path><path id="SvgjsPath14178" d="M80.2 81.6c-3.1 0-5.6 2.5-5.6 5.6s2.5 5.6 5.6 5.6 5.6-2.5 5.6-5.6-2.5-5.6-5.6-5.6zm0 .6c.2 0 .4 0 .7.1h.5-.2c.1 0 .2 0 .2.1.1 0 .1 0 .2.1.2.1.3.2.5.3.1-.1.2-.1.3-.1.1 0 .1.1.2.1.1.1.1.1.1.2.3-.1.6.2.5.5.3-.2.8.3.6.6.2-.1.4 0 .4.2s.1.4-.1.5c.2 0 .5.1.6.3.1.2.1.5-.1.7.2 0 .4.2.5.4s0 .5-.2.6c.2.1.3.3.3.5s-.1.4-.3.5c.2.1.3.3.3.5s-.2.4-.4.4c.3.2.1.8-.2.8.1.1.1.2.1.3-.1.1-.1.3-.2.4s-.2.1-.4.1c.1.4-.3.8-.8.7 0 .2 0 .3-.1.4s-.1.1-.2.1c-.2.1-.3 0-.5-.1 0 .2-.1.4-.3.5-.2.1-.4 0-.6-.2 0 .2-.1.3-.2.4-.2 0-.3.1-.5.1-.1-.1-.3-.2-.3-.3 0 .2-.2.4-.4.4s-.4-.2-.5-.4c-.1.2-.3.3-.6.2H79c-.2-.1-.3-.3-.3-.5-.2.2-.4.2-.6.1s-.3-.3-.3-.5c-.2.1-.5.1-.6 0h-.1c-.2-.2-.2-.4-.1-.7-.2.2-.4.1-.6 0l-.1-.1c-.1-.2-.1-.4 0-.6-.2 0-.4-.1-.6-.2-.4-.7-.7-1.6-.7-2.4.1-2.8 2.4-5 5.2-5zm2 .4s-.1 0 0 0z" fill="#402500" stroke-width="none" opacity="1" stroke="none"></path><path id="SvgjsPath14179" d="M76.5 89.7c.2 0 .3-.1.4-.2.2-.1.3-.2.4-.3v-.1c-.2.1-.3.1-.4.2-.1.2-.3.2-.4.4 0-.1 0 0 0 0zm-1.2-1.5c.1 0 .3 0 .4-.1.2 0 .3-.1.5-.1v-.1c-.2 0-.3 0-.5.1s-.3 0-.4.2c0-.1 0 0 0 0zm.5-2.5c.4.1.8.3 1.2.4 0 0 .1 0 0-.1-.4-.1-.8-.3-1.2-.3 0-.1 0 0 0 0zm.2-.7c.2.2.4.3.7.4 0 0 .1 0 0-.1-.2-.2-.5-.3-.7-.3-.1-.1-.1-.1 0 0zm3.7 6.5c.1-.3.2-.7.2-1 0 0-.1-.1-.1 0-.1.3-.1.7-.1 1zm3.5-4c.3.1.7.1 1.1.1v-.1h-1.1zm.2-.7c.3 0 .7.1 1 0v-.1c-.3 0-.6 0-1 .1zm.2-2.7c-.3.2-.6.5-.9.8 0 0 0 .1 0 0 .3-.2.6-.5.9-.8.1 0 0 0 0 0zm-2.8-1.3c-.1.3-.2.5-.2.8 0 .1.1.1.1 0 .1-.2.1-.5.1-.8zm-2.9.3c.1.2.2.5.3.7h.1c-.1-.2-.3-.4-.4-.7z" fill="#402500" stroke-width="none" opacity="1" stroke="none"></path></g></g></g><g id="svga-group-eyesfront-left"><path id="SvgjsPath14109" d="M80.2 73.7c-7.8 0-14.1 6.1-14.1 13.6s6.3 13.6 14.1 13.6 14.1-6.1 14.1-13.6S88 73.7 80.2 73.7zm3.3 22c-4.4-.2-18.8-8.9-15.5-11.3s9.4-2 12.2-1.1c2.8.9 9.5 11.1 9.5 11.1.2.4-1.7 1.4-6.2 1.3z" fill="#f0c7b1" stroke-width="none" opacity="1" stroke="none"></path><path id="SvgjsPath14110" d="M90.2 94.4s-6.6-8.9-7.4-10.2c-.8-1.2-.6-1.4-.6-1.4s2.2 0 2.5-.1c.3-.2-4.1-1.8-5.4-2s-12.3 0-12.4 4.2c0 0 .2-.1.6-.2-.1.1-.1.2-.1.3-.1.3 0 .7.1.9.2.6.6 1.1.9 1.5.8.9 1.6 1.6 2.5 2.3 1.8 1.4 3.8 2.6 5.8 3.7 1 .5 2.1 1 3.1 1.4 1.1.4 2.2.8 3.4.9 1.2 0 2.3 0 3.4-.2.6-.1 1.1-.2 1.7-.4.3-.1.5-.2.8-.3.1-.1.2-.1.4-.2.1-.1.2-.2.2-.4-.2-.4-.5-.7-.7-1.1.4.6.8 1.1 1.2 1.3zm-.5-.1c0 .1-.1.2-.2.3-.1.1-.2.2-.4.2-.2.1-.5.2-.8.3-.5.2-1.1.3-1.7.3-1.1.1-2.3.1-3.4 0-1.1-.2-2.2-.6-3.2-1s-2-.8-3-1.4c-2-1.1-3.9-2.2-5.7-3.6-.9-.7-1.8-1.4-2.5-2.2-.4-.4-.7-.8-.9-1.3-.1-.2-.2-.5-.1-.7 0-.2.1-.4.3-.5 2.1-.5 6.7-1.7 7.9-1.6h2.2l1.5.3c.3.1.6.2.8.2.2.1.5.3.7.4.9.7 1.6 1.5 2.4 2.3.5.5.9 1.1 1.4 1.6 1.2 1.6 2.5 3.3 3.6 4.6.2.6.6 1.2 1.1 1.8z" fill="#523009" stroke-width="none" opacity="1" stroke="none"></path></g></g></g><g id="svga-group-eyes-right-move" transform="matrix(1,0,0,1,-1,0)"><g id="svga-group-eyes-right"><g id="svga-group-eyesback-right"><path id="SvgjsPath14102" d="M119.8 74.2c7.5 0 13.5 5.8 13.5 13s-6 13-13.5 13-13.5-5.8-13.5-13 6-13 13.5-13z" fill="#ffffff" stroke-width="none" opacity="1"></path></g><g id="svga-group-eyesiriswrapper-right" transform="matrix(1,0,0,1,0,0)"><g id="svga-group-eyesiriscontrol-right" transform="matrix(1,0,0,1,0,0)"><g id="svga-group-eyesiris-right"><path id="SvgjsPath14180" d="M119.8 82.5c2.6 0 4.7 2.1 4.7 4.7s-2.1 4.7-4.7 4.7-4.7-2.1-4.7-4.7 2.1-4.7 4.7-4.7z" fill="#5f3d10" stroke-width="none" opacity="1" stroke="none"></path><path id="SvgjsPath14181" d="M117.3 88.5c0 1.1.4 2.2 1.2 2.9.4.1.8.2 1.3.2 2.4 0 4.4-2 4.4-4.4 0-.9-.3-1.8-.7-2.4-.6-.3-1.2-.5-1.9-.5-2.4 0-4.3 1.9-4.3 4.2z" fill="#6e4c1e" stroke-width="none" opacity="1" stroke="none"></path><path id="SvgjsPath14182" d="M119.8 84.8c1.3 0 2.4 1.1 2.4 2.4s-1.1 2.4-2.4 2.4-2.4-1.1-2.4-2.4 1.1-2.4 2.4-2.4z" fill="#000000" stroke-width="none" opacity="1"></path><path id="SvgjsPath14183" d="M118.7 84.8c.5 0 .8.4.8.8s-.4.8-.8.8-.8-.4-.8-.8.4-.8.8-.8zm2.8 3.8c.2 0 .3.1.3.3s-.1.3-.3.3-.3-.1-.3-.3.1-.3.3-.3z" fill="#ffffff" stroke-width="none" opacity="1"></path><path id="SvgjsPath14184" d="M119.8 82.3c-2.7 0-4.9 2.2-4.9 4.9s2.2 4.9 4.9 4.9 4.9-2.2 4.9-4.9-2.2-4.9-4.9-4.9zm.9.6zm-.9-.1c.2 0 .4 0 .6.1h.4c.1 0 .2.1.3.1.1.1.3.1.4.2.1-.1.1-.1.2-.1s.2.1.3.1c0 0 .1.1.1.2.2-.1.5.2.5.4.3-.1.7.2.6.5.1 0 .3 0 .4.2.1.1 0 .3-.1.4.2 0 .4.1.5.3.1.2.1.4-.1.6.2 0 .3.1.4.2 0 .1.1.1.1.2 0 .2-.1.3-.2.4.2.1.2.2.3.4v.1c0 .2-.1.3-.3.4.1.1.2.2.2.3v.2c-.1.1-.2.3-.3.3.2.2.1.7-.2.7.1.1.1.2.1.2-.1.2-.2.3-.2.4-.1.1-.2.1-.3.1.1.4-.3.7-.7.7 0 .1 0 .2-.1.3-.1.1-.2.1-.2.2-.1 0-.3 0-.4-.1 0 .2-.1.4-.3.4-.2.1-.4 0-.5-.2 0 .1-.1.3-.2.4-.1 0-.3.1-.4.1-.1-.1-.2-.1-.3-.3 0 .2-.2.3-.4.3s-.4-.1-.4-.3c-.1.2-.3.3-.5.2-.2-.1-.3-.2-.3-.4-.1.1-.4.2-.5.1-.2-.1-.3-.3-.3-.4-.2.1-.4.1-.6 0s-.2-.4-.1-.6c-.2.1-.4.1-.6 0-.1-.2-.2-.4 0-.6-.2 0-.4-.1-.5-.2s-.1-.2-.2-.3c-.2-.6-.4-1.2-.4-1.8-.2-2.4 1.7-4.4 4.2-4.4zm-2.5 8.1zm-1.2-1.2zm.6.6c0 .1 0 .1 0 0 0 .1 0 .1 0 0z" fill="#402500" stroke-width="none" opacity="1" stroke="none"></path><path id="SvgjsPath14185" d="M116.6 89.4c.1 0 .2-.1.4-.2.1-.1.3-.1.4-.2v-.1c-.1.1-.3.1-.4.2s-.3.1-.4.3c-.1-.1 0 0 0 0zm-1.1-1.4c.1 0 .2 0 .4-.1.1 0 .3-.1.4-.1v-.1c-.1 0-.3 0-.4.1s-.3.1-.4.2zm.5-2.1c.3.1.7.2 1 .3 0 0 .1 0 0 0-.3-.2-.7-.3-1-.3-.1-.1-.1 0 0 0zm.1-.7c.2.1.4.3.6.4 0 0 .1 0 0-.1l-.6-.3zm3.3 5.8c.1-.3.2-.6.2-.9 0 0-.1-.1-.1 0-.1.2-.1.6-.1.9-.1 0 0 0 0 0zm3-3.5c.3.1.6.1.9.1-.2-.1-.6-.1-.9-.1zm.2-.6h.8v-.1c-.2 0-.5 0-.8.1 0-.1 0 0 0 0zm.2-2.4c-.3.2-.6.4-.8.7.2-.2.5-.4.8-.7zm-2.5-1.1c-.1.2-.1.5-.1.7h.1v-.7zm-2.5.2.3.6h.1c-.2-.2-.3-.4-.4-.6z" fill="#402500" stroke-width="none" opacity="1" stroke="none"></path></g></g></g><g id="svga-group-eyesfront-right"><path id="SvgjsPath14111" d="M119.8 73.7c-7.8 0-14.1 6.1-14.1 13.6s6.3 13.6 14.1 13.6 14.1-6.1 14.1-13.6-6.3-13.6-14.1-13.6zm-3.7 21.6c-4.4.4-5.9.1-5.8-.3 0 0 6-10.6 8.7-11.7s8.2-1.1 11.6 1.1c3.4 2.2-10.1 10.4-14.5 10.9z" fill="#f0c7b1" stroke-width="none" opacity="1" stroke="none"></path><path id="SvgjsPath14114" d="M131 84.5c-.2-.2-.5-.3-.7-.5-.9-.5-1.9-.8-2.8-1.1 1.8.2 3.4.4 3.4.4-1.5-1.6-10.1-1.5-11.4-1.2s-5.3.7-5 .8c.3.2 2.5 0 2.5 0s.2.1-.5 1.4-6.7 10.7-6.7 10.7c.3-.3.7-.7 1.1-1.2-.2.4-.4.8-.6 1.1 0 .1 0 .2.1.2.1.1.1.1.2.1.1.1.3.1.4.1.3.1.5.1.8.1h1.6c.5 0 1.1 0 1.6-.1.6 0 1.1 0 1.7-.1 2.2-.4 4.2-1.4 6.1-2.4 1.9-1 3.8-2.2 5.5-3.6.9-.7 1.7-1.4 2.4-2.4.3-.5.6-1 .7-1.6 0-.2-.2-.5-.4-.7zm-.7 2.2c-.7.8-1.5 1.5-2.3 2.2-1.7 1.3-3.6 2.5-5.4 3.5-.9.5-1.9 1-2.9 1.5-1 .4-2 .9-3 1.1-1 .2-2.2.3-3.2.4-.5 0-1.1.1-1.6 0-.3 0-.5 0-.8-.1-.1 0-.3-.1-.4-.1-.1 0-.2-.1-.2-.2.4-.6.8-1.2 1.1-1.9 1-1.4 2.2-3.2 3.3-4.9 1-1.3 2-2.7 3.1-3.8.4-.4.8-.7 1.2-.9.5-.2 1-.3 1.5-.5.4-.1.9-.2 1.3-.2.5 0 .9 0 1.3-.1h.8c1 0 2 .1 3 .4 1.1.2 2.1.6 3 1.2.2.1.5.3.6.4.1.2.2.4.2.6 0 .5-.3 1-.6 1.4z" fill="#523009" stroke-width="none" opacity="1" stroke="none"></path></g></g></g><g id="svga-group-facehighlight-single"></g><g id="svga-group-eyebrows-left-move" transform="matrix(1,0,0,1,0,0)"><g id="svga-group-eyebrows-left-rotate" transform="matrix(1,1.7453292519943295e-9,-1.7453292519943295e-9,1,1.2810720306788426e-7,-1.3892820049932197e-7)"><g id="svga-group-eyebrows-left"><path id="SvgjsPath14021" d="M93.2 68.2s-1.8 4.7-3.3 5.6-18.1.7-18.1.7-4.2 2.2-5.5 3.9l3.3-8.3.4.4 10.4-1.7-1.2.8 13-1.7-1.3 2.2 2.3-1.9z" fill="#504543" stroke-width="none" opacity="1"></path><path id="SvgjsPath14022" d="m66 79.1.4-.6c.3-.4.7-.8 1.1-1.2.2-.2.4-.3.7-.5.2-.2.5-.3.7-.5.5-.3 1-.6 1.4-.9s1-.6 1.5-.8c2.2.1 4.3.1 6.4.1 2.2 0 4.3 0 6.5-.1 1.1-.1 2.2-.1 3.2-.2.5-.1 1.1-.1 1.6-.3l.2-.1c.1 0 .1-.1.2-.1.1-.1.2-.2.3-.2l.3-.3.2-.3c.3-.4.5-.8.8-1.2l.6-1.2c.2-.4.4-.8.5-1.2.1-.2.2-.4.2-.6l.1-.3.1-.2v-.2l-1.2.9c-.3.2-.5.4-.8.6l1.1-1.8.1-.2h-.3l-3.3.4-3.3.4c-1.1.1-2.2.3-3.3.4l-2.2.3.4-.2.9-.6-1.1.2-2.6.4-2.6.4-5.1.8-.4-.3-.2-.2-.1.3-1.6 4.2-.4 2.2c-.3.7-.5 1.4-.8 2.1l-.2.6zm.6-1.1c.2-.5.4-1.1.7-1.6l.8-2.1 1.6-3.8.2.2.1.1h.1l5.2-.8 2.6-.4 1.5-.2-.4.1-.8.5 1.1-.1 3.3-.4c1.1-.1 2.2-.3 3.2-.5l3.2-.5 3-.4-1.1 2-.3.5.4-.4 1.1-.9c.4-.3.7-.6 1.1-1l-.1.1v.1l-.1.1-.1.3-.3.6-.6 1.2c-.4.8-.9 1.6-1.4 2.3l-.2.3-.2.2c-.1.1-.2.1-.3.2l-.1.1-.2.1c-.5.1-1 .2-1.6.2-1.1.1-2.1.2-3.2.2-2.2.1-4.3.1-6.5.2-2.2 0-4.3.1-6.5.1-1 .6-2 1.1-3 1.8-.5.3-.9.7-1.4 1-.3.1-.6.4-.8.6zm23.1-9c-.6.3-1.1.7-1.6 1-.5.3-1.1.7-1.6 1.1-.5.4-1 .7-1.6 1.1s-1 .8-1.5 1.1l.4.2c.2-.7.3-1.3.4-2l.1-.4-.4.3c-.6.5-1.2 1-1.7 1.5.7-.4 1.3-.8 1.9-1.3l-.3-.1c-.2.7-.4 1.3-.6 1.9l-.2.6.6-.4c.5-.4 1-.7 1.5-1.1l1.5-1.2 1.5-1.2c.6-.3 1.1-.7 1.6-1.1zm-10.9 1.6c-.7.4-1.4.9-2.2 1.4-.7.5-1.4.9-2.1 1.4l.4.2c.1-.3.2-.6.4-1 .1-.3.2-.6.4-1l.2-.5-.5.2c-.5.2-1.1.5-1.6.7s-1 .5-1.5.8c-.5.3-1 .6-1.4.9-.4.3-.9.7-1.2 1.1.4-.3.9-.6 1.4-.9.5-.3 1-.6 1.5-.8.5-.2 1-.5 1.5-.7.5-.2 1-.5 1.6-.7l-.3-.2c-.1.3-.2.6-.4 1-.1.3-.2.6-.3 1l-.2.6.6-.4c.7-.5 1.3-1 2-1.5.4-.5 1.1-1 1.7-1.6z" fill="#413230" stroke-width="none" opacity="1"></path></g></g></g><g id="svga-group-eyebrows-right-move" transform="matrix(1,0,0,1,0,0)"><g id="svga-group-eyebrows-right-rotate" transform="matrix(1,1.7453292519943295e-9,-1.7453292519943295e-9,1,1.2967792883955553e-7,-2.1039942055267602e-7)"><g id="svga-group-eyebrows-right"><path id="SvgjsPath14023" d="M108.2 71.1s2.3 4.4 3.6 5.2c1.4.7 15.7-1.3 15.7-1.3s4 1.7 5.3 3.2l-4-7.8-.3.4-9.2-.5 1.2.6-11.5-.2 1.4 2-2.2-1.6z" fill="#504543" stroke-width="none" opacity="1"></path><path id="SvgjsPath14024" d="M132.9 78.2c-.3-.7-.7-1.3-1-2l-1-2-2-3.9-.1-.3-.2.2-.3.3-4.5-.3-2.3-.1-2.3-.1-1-.1.9.5.4.2H108.7l.1.2 1.2 1.6c-.2-.2-.5-.3-.8-.5-.4-.2-.8-.5-1.1-.8v.2l.1.2.2.3.3.6c.2.4.4.8.7 1.2.2.4.5.8.7 1.1s.5.7.8 1.1l.2.3.3.2c.1.1.2.1.3.2.1 0 .1.1.2.1h.2c.5.1 1 .1 1.4.1.9 0 1.9-.1 2.8-.2 1.9-.1 3.7-.4 5.6-.6 1.8-.2 3.7-.5 5.5-.8.5.2.9.4 1.4.6.5.2.9.5 1.4.7.2.1.4.3.7.4.2.1.4.3.6.4.4.3.8.6 1.1 1l.4.5-.1-.5zm-1.2-1.1c-.4-.3-.9-.6-1.3-.8-.9-.5-1.8-1-2.8-1.4-1.8.2-3.7.5-5.6.7-1.9.2-3.7.4-5.6.6-.9.1-1.9.2-2.8.2-.5 0-.9 0-1.4-.1H111.9c-.1-.1-.2-.1-.3-.2l-.2-.2-.2-.2c-.6-.7-1.1-1.4-1.6-2.2-.2-.4-.5-.8-.7-1.1l-.3-.6-.2-.3-.1-.2v-.1l-.1-.1c.4.3.7.6 1.1.8l1.1.8.4.3-.3-.4-1.3-1.8 2.6.1 2.9.1c.9 0 1.9.1 2.9.1l2.9.1h.9l-.8-.4-.3-.2 1.3.1 2.3.1 4.6.2h.1l.1-.1.1-.2 1.9 3.6 1 1.9c.3.5.5 1 .8 1.5-.2-.2-.5-.4-.8-.6zm-20.4-5.6c.5.3 1 .6 1.6.8s1 .6 1.5.9l1.5.9 1.5.9-.3.2c-.2-.6-.4-1.3-.7-1.9l-.1-.4.3.3c.6.4 1.1.8 1.7 1.3-.6-.3-1.2-.7-1.8-1.1l.2-.2c.3.6.5 1.2.8 1.9l.2.6-.5-.3-1.5-.9c-.5-.3-1-.6-1.5-1s-1-.7-1.4-1c-.5-.3-1-.7-1.5-1zm9.6.3c.7.3 1.4.7 2.1 1.1s1.3.8 2 1.2l-.3.2c-.2-.3-.3-.6-.5-.9-.2-.3-.3-.6-.5-.9l-.2-.4.5.2c.5.2 1 .3 1.5.5s.9.4 1.4.6c.5.2.9.5 1.4.8.4.3.9.6 1.2.9-.4-.3-.9-.5-1.3-.8-.5-.2-.9-.4-1.4-.6-.5-.2-.9-.4-1.4-.6-.5-.2-1-.3-1.4-.5l.3-.3c.2.3.3.6.4.9.2.3.3.6.4.9l.3.6-.6-.4c-.7-.4-1.3-.8-1.9-1.3-.7-.3-1.4-.7-2-1.2z" fill="#413230" stroke-width="none" opacity="1"></path></g></g></g><g id="svga-group-beardwrap"><g id="svga-group-beard-single-move" transform="matrix(1,0,0,1,0,0)"><g id="svga-group-beard-single" transform="matrix(0.8499994000000002,0,0,0.8499994000000002,14.984958888265211,22.485087880055204)"><path id="SvgjsPath14011" d="M95.1 158s-6.6-5.4-8.3-11.6c-1.1-3.8 2.2-5.4 5.4-5.7 3.2-.3 10.7.4 10.7.4l-.1 2.4 1-2.5s5.1.4 7.6 1.5 1.7 4.4.4 7.1c-1.2 2.6-7.3 8.6-7.3 8.6v-1.1l-1 1.4-6.9-.3-2.5-2.2 1 2z" fill="#6b4e40" stroke-width="none" opacity="1"></path><path id="SvgjsPath14012" d="M113.3 144.2c-.2-.6-.6-1.2-1.1-1.5-.5-.4-1.1-.6-1.6-.7-2.2-.6-4.5-.9-6.7-1.1h-.1l-.1.1-.7 1.7.1-1.6v-.1h-.1c-2.9-.2-5.7-.4-8.6-.5-1.4 0-2.9 0-4.3.4s-2.9 1.2-3.5 2.7c-.3.7-.3 1.6-.2 2.3.2.8.4 1.4.7 2.1.6 1.4 1.3 2.6 2.1 3.8 1.7 2.4 3.7 4.4 6 6.2l-.6-1.7 2.1 2 .1.1h.1c2.3.2 4.6.3 6.9.5h.2l.1-.1.4-.5v1l.6-.6c1.6-1.6 3.2-3.2 4.7-4.9.7-.9 1.5-1.7 2.1-2.7.7-1 1.1-2.1 1.4-3.2.1-1.3.3-2.5 0-3.7zm-.9 3.3c-.3 1-.8 2.1-1.4 2.9-.6.9-1.3 1.8-2.1 2.6-1.3 1.5-2.6 2.9-4 4.3v-1.2l-.6.8-.9 1.2c-2.2-.1-4.4-.1-6.7-.2l-2.5-2.1-.4-.3.2.4c.3.6.6 1.3.9 2-2-1.9-4-4.1-5.5-6.5-.8-1.2-1.5-2.4-2-3.7-.2-.6-.5-1.3-.6-2-.1-.7-.1-1.3.2-1.9.5-1.2 1.7-2 3-2.4 1.3-.4 2.8-.5 4.2-.6 2.8-.1 5.7.1 8.5.3l-.1 2.3v.8l.3-.7 1-2.3c2.2.3 4.4.6 6.4 1.3.5.2 1 .4 1.4.7.4.3.7.7.8 1.2.4 1 .2 2.1-.1 3.1zm-18.8 1.2-.4-1-.1 1c0 .3-.1.6-.1.9-.5-1-1-2-1.4-3.1-.5-1.3-.9-2.6-1.2-4 .1 1.4.5 2.8.9 4.1.4 1.4 1 2.6 1.7 3.9l.4.7.1-.8c0-.2.1-.5.1-.7.5 1.1 1 2.2 1.6 3.3.7 1.4 1.6 2.7 2.6 3.8-.8-1.3-1.6-2.6-2.2-4-.9-1.3-1.5-2.7-2-4.1zm15.1-.1-.5.1-.7.2c.2-1.1.5-2.2.7-3.3l-1.2 3.6-.1.4.4-.1.5-.1-1.2 2.1-1.4 2.6c.7-.8 1.2-1.6 1.8-2.4.5-.8 1.1-1.7 1.6-2.6l.1-.5zm-14.2-6.1c.2 2.4.7 4.7 1.3 7 .3 1.1.6 2.3 1.1 3.4.4 1.1.9 2.2 1.5 3.2-.8-2.2-1.4-4.5-2-6.8-.7-2.2-1.3-4.5-1.9-6.8zm-5.4 4.4c.8 1.8 1.8 3.5 3 5.1.6.8 1.2 1.6 1.8 2.3.7.7 1.3 1.5 2.1 2.1-1.3-1.5-2.4-3.1-3.6-4.7-1-1.6-2.1-3.2-3.3-4.8zm18 6.9c.5-.6 1-1.3 1.4-1.9l1.2-2.1c.8-1.4 1.5-2.8 2-4.4-.9 1.3-1.7 2.7-2.4 4.1-.8 1.5-1.5 2.9-2.2 4.3zm-3.6-3.9-1.5 6.6c.4-1 .8-2.1 1.1-3.2.3-1.1.6-2.2.8-3.3.2-1.1.4-2.2.6-3.4.2-1.1.3-2.2.3-3.4-.2 1.1-.4 2.2-.7 3.3l-.6 3.4zm-4.7-1.3c0 1.4.1 2.7.3 4 .1.7.2 1.3.4 2s.3 1.3.6 1.9c-.1-1.4-.2-2.7-.4-4-.3-1.3-.5-2.6-.9-3.9z" fill="#5c3d2e" stroke-width="none" opacity="1"></path></g></g></g><g id="svga-group-mustache-single-move" transform="matrix(1,0,0,1,0,0)"><g id="svga-group-mustache-single"></g></g><g id="svga-group-nose-single-move" transform="matrix(1,0,0,1,0,0)"><g id="svga-group-nose-single"><path id="SvgjsPath14443" d="M99.1 116.5c.67.12 4.53-3.31 4.53-3.31s2.06 1.59 3.62 1.43c1.56-.16 2.44-1.08 3-1.96.56-.88-.89-3.1-1.78-4.41-.9-1.31-3.54-5.22-4.09-7.02-1.07-3.45-3-4.76-4.92-4.64-1.92.12-4.04 1.52-4.6 3.44-.56 1.92-.72 4.28-1.8 5.76s-3.32 4-3.56 4.72c-.24.72-.11 2.8 1.24 3.56 1.73.97 4.3-.51 4.3-.51s3.18 2.78 4.06 2.94z" fill="#f0c7b1" stroke-width="none" opacity="1" stroke="none"></path><path id="SvgjsPath14444" d="M110.28 110.87c-.42-1.01-1.08-1.86-1.81-2.61.57.88 1.08 1.8 1.39 2.76.15.48.24.97.16 1.42-.05.23-.12.41-.26.6-.13.2-.29.39-.47.54-.69.66-1.7.91-2.68.78-.49-.06-.99-.2-1.46-.39-.45-.16-.86-.39-1.29-.62.38-.56.72-1.15 1.02-1.76-.97.91-1.89 1.83-2.87 2.64-.49.4-.98.8-1.51 1.09-.51.3-1.07.55-1.51.52-.12.01-.21-.02-.31-.04-.09-.05-.17-.06-.3-.16-.24-.15-.49-.36-.74-.55-.5-.39-.99-.82-1.49-1.23-.99-.84-1.99-1.69-3.07-2.48a21.8 21.8 0 0 0 1.68 2.24c-.5.22-1.01.41-1.53.52-.64.12-1.3.15-1.84-.1-1.09-.53-1.72-1.83-1.54-2.94.05-.28.13-.5.3-.74.17-.26.36-.53.56-.79.4-.52.82-1.02 1.26-1.52l.66-.74c.26-.28.46-.56.67-.84.41-.57.77-1.18 1.07-1.83.3-.65.48-1.4.59-2.06.12-.68.22-1.35.3-2.02.15-1.35.27-2.69.31-4.04.1-2.7.03-5.42-.51-8.07.05 2.69-.14 5.35-.4 8-.15 1.32-.29 2.65-.5 3.96-.1.66-.2 1.31-.32 1.96-.12.66-.27 1.22-.54 1.79a9.34 9.34 0 0 1-.94 1.65c-.18.26-.37.53-.57.74-.23.26-.45.51-.66.78-.43.53-.85 1.07-1.24 1.63-.2.28-.39.57-.57.88-.2.33-.34.76-.37 1.14-.13 1.57.85 3.05 2.25 3.55.73.23 1.47.11 2.12-.11.54-.19 1.03-.46 1.49-.77.24.28.47.57.71.84.44.5.91.96 1.41 1.42.25.23.51.44.82.65.13.1.36.22.57.3.22.06.44.12.66.11.88 0 1.55-.38 2.14-.76.58-.41 1.1-.86 1.55-1.37.44-.48.84-.99 1.21-1.53.75.66 1.64 1.25 2.68 1.45.54.12 1.11.12 1.66 0 .55-.14 1.07-.41 1.49-.8.21-.19.39-.42.54-.65.17-.23.29-.54.32-.84.06-.55-.08-1.1-.29-1.6z" fill="#c27b55" stroke-width="none" opacity="1" stroke="none"></path></g></g><g id="svga-group-hair-front"><path id="SvgjsPath14276" d="M62.3 84.7s1.5-2.7 1.7-7.3 0-10.9.2-14.2c.2-3.3 1-8.2 1.5-10 .4-1.8.6-3.5 1.8-5.3 1.2-1.8 2.4-3.6 5.2-4.3 2.8-.7 7.6-3 8.7-4.3 0 0 3-.6 3.7-1 0 0 5.3 2.6 7.2 2.8 1.9.2 8.2.5 12.3-.7s10.1-2.6 12.4-2.2 12.2-1.1 16.6 12.7c0 0 1.1 4.3 1.2 10.4.1 6.1.3 10.1.8 11.9.4 1.8 1.2 5.6 1.2 7.3s.6 2.5.6 2.5 1.7-3.8 2.2-5.8 1.9-11.6 2.1-13.1c.2-1.5.6-6.4.9-8.5.3-2 0-9.5 0-9.5s.1-4.7-.6-6.1c-.7-1.3-1.4-3.5-2.9-4.8 0 0 .1-1.6-.1-2.7s-2.1-5.3-8.2-10.6-13.3-9.4-21.6-9.4c0 0 2.9-.4 4.8-.6 0 0-5.5-.7-8.1-.3l4.3-.6s-7.2-1.4-12.3.1c0 0 .7-1.2 4.2-2.5 0 0-7.8-2.1-15.4 3.1 0 0-5.9-.3-11.7 6.8 0 0-3.7 1.1-4.7 1.8s-6.2 3.1-6.9 11.4c0 0-5 .6-5.5 11l.5 8.7s-1.8 3.6-1.8 7.3 1 6 1.1 7.8c.1 1.8.7 5.2.7 5.2s1.8 4.2 2.1 5.9c.2 1.9 1.8 7.1 1.8 7.1z" fill="#4e4341" stroke-width="none" opacity="1" stroke="none"></path><path id="SvgjsPath14277" d="M143 46.5c.1-1 .1-2 0-3s-.3-2-.6-3-.7-1.9-1.1-2.8c-.4-.8-1-1.6-1.6-2.4.2-1.8-.4-3.5-1.2-5-.8-1.5-1.9-2.9-3.1-4.2-2.3-2.6-5-4.8-7.7-6.9-2.8-2-5.8-3.8-9.1-4.9-1.6-.6-3.3-1-5-1.2-1.7-.2-3.4-.3-5.1-.1 3.4-.3 6.8.5 10 1.7s6.1 3 8.8 5.1c1.4 1 2.6 2.1 3.9 3.3 1.3 1.1 2.5 2.3 3.6 3.6 1.1 1.3 2.1 2.6 2.9 4.1.8 1.4 1.3 3.1 1.1 4.6v.2l.2.2c.6.7 1.1 1.5 1.6 2.3.4.8.8 1.7 1.1 2.6s.5 1.8.5 2.8c.1 1 .1 1.9 0 2.9.2 3.1.2 6.2.1 9.3-.1 3.1-.7 6.1-1.1 9.2-.4 3.1-.8 6.2-1.3 9.2-.2 1.5-.5 3.1-.9 4.5-.5 1.4-1.1 2.9-1.5 4.4.5-1.5 1.1-2.9 1.7-4.3.5-1.5.8-3 1.1-4.6.6-3.1 1.1-6.1 1.5-9.2l.7-4.6c.3-1.5.4-3.1.5-4.7.2-2.9.2-6 0-9.1zm-7.5 1.3c.1-.8.4-1.6.6-2.4.2-.8.5-1.6.8-2.4l.8-2.4.4-1.2.2-.6.1-.3.1-.2v-.1.1-.1c-.1 0 0 0-.1.1l-.1.1-.2.3-.3.5-.6 1.1c-.4.8-.8 1.5-1.1 2.3-.7 1.6-1.3 3.2-1.6 4.9-.2 1.2-.2 2.4-.2 3.6-.1-.5-.3-1-.4-1.5-.5-1.8-1.2-3.6-2-5.3s-1.7-3.4-3-4.9c-2.4-3-5.9-4.9-9.4-6.3-3.5-1.2-6.3-3.8-8.2-6.9-.9-1.5-1.7-3.3-1.8-5.1-.1-.9.1-1.8.4-2.6.4-.8.9-1.5 1.7-2 1.4-1.1 3.3-1.6 5.1-1.5 1.8.1 3.7.7 5.3 1.6-1.6-1-3.4-1.6-5.3-1.8-1.9-.2-3.9.2-5.4 1.4-.8.5-1.5 1.3-1.9 2.2-.4.9-.6 1.9-.5 2.9.1 2 .8 3.8 1.8 5.4 1.9 3.3 5 6 8.5 7.3 3.4 1.4 6.7 3.3 8.9 6.1 1.8 2.2 3 4.8 4 7.5-1.3-3.2-3.6-6.2-6.7-8-1.8-1.1-3.9-1.7-6-1.8h-.4c-3.2-1-6.6-1.6-10-1.7h-2.5l-.8-.1c-.5 0-1.1-.2-1.6-.3-.5-.2-1-.3-1.5-.6-2-.9-3.7-2.3-4.8-4.1-1.2-1.8-2-3.9-2.3-6-.3-2.2-.2-4.4.5-6.4s2.3-3.7 4.1-4.9c1.9-1.1 4.1-1.8 6.3-2.1-2.2.1-4.5.6-6.5 1.7s-3.7 2.8-4.6 5c-.2.5-.4 1.1-.5 1.7-.1.6-.2 1.1-.2 1.7 0 .6-.1 1.1-.1 1.7 0 .6.1 1.1.1 1.7.3 2.3 1.1 4.5 2.3 6.5 1.3 1.9 3.2 3.5 5.3 4.4 2.1 1 4.6 1.1 6.8.9 2.2-.1 4.4.1 6.6.5.6.1 1.3.2 1.9.3-1.5 0-3 0-4.4.2-4.2.5-8.2 2-12.2 2.6-2 .3-4.1.4-6.1.2-2.1-.1-4.1-.6-5.9-1.4-1.8-.8-3.5-2-4.8-3.6-1.3-1.5-2.2-3.4-2.8-5.3s-.8-4-.7-6c.1-2 .3-4.1 1.1-6 1.6-3.7 4.9-6.6 8.6-8.2 3.4-1.5 7.3-2 10.9-1.4-.5.2-1 .3-1.5.6-.4.2-.8.4-1.2.7-.4.3-.7.6-.9 1.1l-.1.4.4-.1c1-.4 2.1-.6 3.1-.7 1.1-.1 2.1-.2 3.2-.2s2.2.1 3.2.1c1.1.1 2.2.2 3.2.4-1.1-.2-2.1-.4-3.2-.5s-2.2-.2-3.2-.2c-1.1 0-2.2 0-3.3.1-.9.1-1.8.2-2.7.5.2-.2.3-.4.5-.5.3-.2.7-.4 1.1-.6.8-.3 1.6-.6 2.5-.8l1.1-.2-1.1-.3c-4-1-8.5-.6-12.4 1-1.3.5-2.6 1.2-3.7 2.1-1.5.2-2.9.6-4.3 1.2-1.7.7-3.3 1.7-4.7 2.8-.4.3-.7.6-1.1.9-.3.3-.6.7-.9 1-.3.4-.5.8-.8 1.1-3.1.6-6.1 2.2-8.3 4.6-1.3 1.5-2.1 3.3-2.7 5.2-.3 1.2-.5 2.4-.5 3.6-1.5.5-2.8 1.6-3.6 3-.9 1.5-1.3 3.3-1.5 5-.4 3.3-.4 6.7 0 10.1v.2c-.9 2.7-1.6 5.5-1.8 8.4V61c.1.7.2 1.5.4 2.2.3 1.4.5 2.8.7 4.2.2 1.4.4 2.8.8 4.2.2.7.4 1.4.7 2.1.3.6.5 1.3.8 2 .9 2.7 1.7 5.4 2.4 8.2-.5-2.8-1-5.6-1.9-8.4-.2-.7-.4-1.4-.7-2.1-.3-.7-.5-1.3-.6-2-.3-1.4-.4-2.8-.6-4.2-.2-1.4-.4-2.8-.7-4.2-.2-.7-.3-1.4-.3-2v-2c.1-2.2.6-4.4 1.2-6.5.7 2.9 2.2 8.2 5.7 12.4 0 1.1.1 2.2 0 3.4 0 1.9-.1 3.8-.1 5.6 0 1.9-.1 3.8-.3 5.6-.1.9-.1 1.9-.3 2.8-.2.9-.2 1.9-.7 2.7.5-.8.7-1.8.9-2.7s.4-1.9.5-2.8c.2-1.9.4-3.8.6-5.6.2-1.9.2-3.8.3-5.7.1-1.9 0-3.8 0-5.6.1-3.7.6-7.5 1.5-11.1.4-1.8 1-3.6 2.2-5 1.2-1.4 2.8-2.4 4.6-3-1.8.4-3.6 1.4-5 2.7-.7.7-1.2 1.5-1.6 2.4-.4.9-.7 1.8-1 2.7-.6 1.8-.9 3.7-1.2 5.6-.3 1.9-.5 3.8-.6 5.7v.6c-4.1-5.7-5.1-13-5.1-13.1h-.1c-.2-1.6-.3-3.2-.4-4.8-.1-1.7 0-3.4.1-5.2.1-1.7.4-3.4 1.2-4.9.7-1.3 1.8-2.5 3.3-3.1 0 .7 0 1.5.1 2.2.3 1.9 1 3.9 2.4 5.3 1.4 1.5 3.4 2.2 5.3 2.4 3.9.6 7.9-.6 10.8-3-1.6 1-3.3 1.8-5.2 2.2-1.8.4-3.7.4-5.5.1-1.8-.4-3.6-1-4.8-2.3-1.2-1.3-1.9-3.1-2.1-4.9-.5-3.6.5-7.5 2.7-10.4 1.2-1.4 2.7-2.6 4.3-3.5 1-.6 2.2-1 3.3-1.4-.2.4-.3.7-.5 1.1-.7 1.7-1.1 3.6-1.2 5.4-.1 1.9 0 3.7.4 5.5.4 1.8 1 3.6 2.2 5.1.6.7 1.4 1.4 2.2 1.8.8.4 1.7.7 2.6.9 1.8.3 3.6.2 5.2-.6 1 .8 2.2 1.5 3.4 2.1 2 .8 4.1 1.3 6.2 1.4 2.1.2 4.2.1 6.3-.2 4.2-.7 8.1-2.2 12.2-2.8 2.6-.3 5.3-.5 7.8-.1l1.2.3c-.2-.1-.4-.1-.6-.2 1.3.3 2.5.7 3.6 1.3 3.5 1.9 6.1 5.4 7.5 9.2.1.2.2.5.2.7.5 1.8.9 3.6 1.1 5.4 0 .2 0 .3.1.5 0 .6-.1 1.3-.2 1.9.1-.3.2-.5.3-.8.1 1.3 0 2.6 0 3.9 0 3.7.4 7.5.9 11.2.3 1.8.7 3.7 1.1 5.5.4 1.8.2 3.7.1 5.5.1-.9.3-1.8.4-2.8.1-.9 0-1.9-.1-2.8-.1-.9-.3-1.8-.5-2.8s-.3-1.8-.4-2.8c-.4-3.7-.7-7.4-.6-11.1.1-1.8.1-3.8-.1-5.6 0-.3-.1-.7-.1-1 .1-.5.1-1 .2-1.5.3-1.3.3-3 .6-4.6zM80 38.4c-1.7-.5-3.4-1.3-4.3-2.6-1-1.4-1.5-3.1-1.9-4.9-.3-1.7-.4-3.5-.3-5.3.2-2.4.8-4.8 2-6.9.2 0 .5-.1.8-.1-.2 0-.5 0-.7.1.6-.9 1.2-1.7 2.1-2.4 1.3-1.2 2.8-2.2 4.4-3 1.2-.6 2.6-1.1 3.9-1.5-2.2 1.6-4 3.8-5.2 6.4-.9 2-1.1 4.2-1.2 6.3-.1 2.1.2 4.3.7 6.3s1.6 4 3 5.7c.5.6 1.1 1.2 1.8 1.7-1.7.6-3.5.6-5.1.2z" fill="#3f312e" stroke-width="none" opacity="1" stroke="none"></path></g><g id="svga-group-glasses-single-move" transform="matrix(1,0,0,1,0,0)"><g id="svga-group-glasses-single"></g></g></g></g></g><rect id="svga-credit-rect" width="200" height="15" x="0" y="185" fill="#ecf0f1" opacity="0.5" style="display: none;"></rect><text id="svga-credit-text" font-family="Avenir Next, Roboto, Helvetica, Arial, sans-serif" font-size="10px" text-anchor="start" font-weight="400" size="10px" anchor="start" weight="400" fill="#333333" x="33.40447998046875" y="182.60824704170227" style="display: none;"><tspan id="SvgjsTspan14010" dy="13" x="33.40447998046875">Created on AvatarMaker.com</tspan></text></g><defs id="SvgjsDefs13957"></defs></svg>