<svg xmlns="http://www.w3.org/2000/svg" viewBox="0 0 32 32" id="Responsive"><path d="M2.344 6A.515.515 0 0 0 2 6.5V21H.5a.5.5 0 0 0-.156 0 .515.515 0 0 0-.344.5C0 22.909 1.27 24 2.75 24H23v1.5c0 .262.238.5.5.5h8a.52.52 0 0 0 .5-.5v-13a.52.52 0 0 0-.5-.5H27V6.5a.52.52 0 0 0-.5-.5h-24a.501.501 0 0 0-.156 0zM3 7h23v5h-2.5a.5.5 0 0 0-.156 0 .515.515 0 0 0-.344.5V16h-3.313l1.157-1.156c.332-.28.022-.948-.407-.875a.504.504 0 0 0-.28.156l-1.907 1.906c-.498.498-.176.969.375.969H25.5a.52.52 0 0 0 .507-.5.52.52 0 0 0-.507-.5H24v-1h7v8h-7v-4h2.281l-1.125 1.125a.521.521 0 0 0-.055.741c.193.202.562.19.743-.022l1.937-1.906a.502.502 0 0 0 .157-.157c.09-.09.197-.781-.438-.781h-7a.5.5 0 0 0-.156 0 .526.526 0 0 0-.422.578c.04.262.316.463.578.422H23v2H3zm21 6h7v1h-7zM1.25 22H23v1H2.75c-.757 0-1.249-.458-1.5-1zM24 24h7v1h-7z" color="#000" font-family="Sans" font-weight="400" overflow="visible" style="text-indent:0;text-align:start;line-height:normal;text-transform:none;block-progression:tb;marker:none;-inkscape-font-specification:Sans" fill="#e8aa42" class="color000000 svgShape"></path></svg>