<svg viewBox="0 0 512 512" xmlns="http://www.w3.org/2000/svg"><path d="m436.6 139.59-42.49-11.13-59.64 90.44a27.852 27.852 0 0 1-22.05 12.53l23.73 151.48a28.108 28.108 0 0 1-7.84 24.15l-6.44 6.44H466V177.67a39.256 39.256 0 0 0-29.4-38.08ZM199.65 231.43a27.852 27.852 0 0 1-22.05-12.53l-59.64-90.44-42.49 11.13A39.32 39.32 0 0 0 46 177.67V413.5h144.13l-6.439-6.44a28.11 28.11 0 0 1-7.84-24.15ZM284 214l-28-37.66-28 37.73 1.75 6.02-26.25 167.16 52.5 52.5 52.5-52.5-26.25-167.16L284 214zM357.283 72.25l-101.25 57.187 55.078 74.063 63.047-95.625-16.875-35.625zM137.908 107.875l63.047 95.625 55.078-74.063L154.784 72.25l-16.876 35.625z" fill="#e8aa42" class="fill-000000"></path></svg>